<mxfile host="app.diagrams.net" modified="2023-07-15T04:50:55.472Z" agent="Mozilla/5.0 (Windows NT 10.0; Win64; x64) AppleWebKit/537.36 (KHTML, like Gecko) Chrome/114.0.0.0 Safari/537.36" version="21.1.9" etag="U6YgPdyodUXjqSk1um2v" type="github">
  <diagram name="Page-1" id="fWD1YsnnM_KSIcgdsl9d">
    <mxGraphModel>
      <root>
        <mxCell id="0" />
        <mxCell id="1" parent="0" />
      </root>
    </mxGraphModel>
  </diagram>
</mxfile>
